<svg width="36" height="36" viewBox="0 0 36 36" fill="none" xmlns="http://www.w3.org/2000/svg">
    <rect width="30" height="2" rx="1" fill="#66AFEB"/>
    <rect x="2" y="14" width="30" height="2" rx="1" fill="#66AFEB"/>
    <rect x="30" y="9" width="6" height="2" rx="1" fill="#66AFEB"/>
    <rect x="10" y="9" width="17" height="2" rx="1" fill="#66AFEB"/>
    <rect x="8" y="19" width="11" height="2" rx="1" fill="#66AFEB"/>
    <rect x="2" y="5" width="19" height="2" rx="1" fill="#66AFEB"/>
    <rect x="24" y="24" width="10" height="2" rx="1" fill="#66AFEB"/>
    <rect y="24" width="12" height="2" rx="1" fill="#66AFEB"/>
    <rect x="6" y="34" width="30" height="2" rx="1" fill="#66AFEB"/>
    <path d="M0 30C0 29.4477 0.447715 29 1 29H29C29.5523 29 30 29.4477 30 30V30C30 30.5523 29.5523 31 29 31H1C0.447716 31 0 30.5523 0 30V30Z"
          fill="#66AFEB"/>
</svg>
