<svg width="39" height="39" viewBox="0 0 39 39" fill="none" xmlns="http://www.w3.org/2000/svg">
    <path d="M37.8596 22.9412L31.53 25.6654L21.0728 19.5159L31.53 13.3664L37.8596 16.0907C37.9652 16.1385 38.079 16.1544 38.1846 16.1544C38.4934 16.1544 38.794 15.9792 38.9321 15.6765C39.1109 15.2702 38.924 14.8002 38.5178 14.625L33.2445 12.3548L36.9171 10.1961C37.299 9.97304 37.429 9.47917 37.1933 9.10478C36.9577 8.73039 36.4621 8.60294 36.0802 8.83395L32.3344 11.0404L32.9438 5.44853C32.9926 5.01042 32.6676 4.6201 32.2207 4.5723C31.7738 4.52451 31.3757 4.84314 31.3269 5.28125L30.5875 12.068L20.3172 18.114V6.17341L25.9399 2.26225C26.3055 2.00735 26.3949 1.51348 26.1349 1.15502C25.8749 0.796569 25.3711 0.708946 25.0055 0.963848L20.3253 4.22181V0.796569C20.3253 0.358456 19.9597 0 19.5128 0C19.0659 0 18.7003 0.358456 18.7003 0.796569V4.18199L14.012 0.955882C13.6464 0.70098 13.1345 0.788603 12.8826 1.14706C12.6226 1.50551 12.712 2.00735 13.0776 2.25429L18.6921 6.11765V18.098L8.35683 12.0123L7.69056 5.26532C7.64993 4.82721 7.25179 4.50858 6.8049 4.54841C6.35801 4.58824 6.033 4.97855 6.07363 5.41667L6.62615 10.9847L2.92916 8.81005C2.54727 8.58701 2.04351 8.7065 1.816 9.08088C1.58849 9.45527 1.71037 9.94914 2.09226 10.1722L5.74862 12.3229L0.491584 14.6091C0.0853214 14.7843 -0.101559 15.2543 0.0771962 15.6605C0.215325 15.9553 0.507834 16.1385 0.816594 16.1385C0.930348 16.1385 1.03598 16.1146 1.1416 16.0668L7.43867 13.3266L17.9202 19.492L7.43867 25.6575L1.1416 22.9173C0.727216 22.742 0.247826 22.9173 0.0690709 23.3235C-0.109685 23.7218 0.069071 24.1998 0.483459 24.375L5.7405 26.6612L2.08413 28.8119C1.70225 29.0349 1.57224 29.5288 1.80787 29.9032C1.96225 30.1501 2.23039 30.2935 2.50665 30.2935C2.6529 30.2935 2.79103 30.2537 2.92103 30.182L6.61802 28.0074L6.06551 33.5754C6.02488 34.0135 6.34989 34.4038 6.79678 34.4436C6.82115 34.4436 6.85366 34.4436 6.87803 34.4436C7.29242 34.4436 7.6418 34.133 7.68243 33.7267L8.3487 26.9798L18.684 20.894V33.2249L13.0938 36.7218C12.712 36.9608 12.6063 37.4547 12.842 37.8211C12.9963 38.06 13.2564 38.1875 13.5245 38.1875C13.6707 38.1875 13.8251 38.1477 13.9633 38.06L18.6759 35.1127V38.2034C18.6759 38.6415 19.0415 39 19.4884 39C19.9353 39 20.3009 38.6415 20.3009 38.2034V35.0809L25.0136 38.06C25.3874 38.299 25.8911 38.1955 26.1349 37.8211C26.3786 37.4467 26.273 36.9608 25.8911 36.7218L20.3091 33.2169V20.9179L30.5794 26.9638L31.3188 33.7506C31.3594 34.1569 31.7169 34.4596 32.1232 34.4596C32.1557 34.4596 32.1801 34.4596 32.2126 34.4516C32.6595 34.4038 32.9845 34.0135 32.9357 33.5754L32.3263 27.9835L36.0721 30.19C36.2021 30.2696 36.3483 30.3015 36.4864 30.3015C36.7627 30.3015 37.0308 30.1661 37.1852 29.9112C37.4127 29.5368 37.2908 29.0429 36.909 28.8199L33.2363 26.6612L38.5096 24.3909C38.924 24.2157 39.1109 23.7457 38.924 23.3395C38.7453 22.9491 38.2659 22.7659 37.8596 22.9412Z"
          fill="#66AFEB"/>
</svg>
