<svg width="36" height="27" viewBox="0 0 36 27" fill="none" xmlns="http://www.w3.org/2000/svg">
    <path d="M28 16C32.4183 16 36 12.4183 36 8C36 3.58172 32.4183 0 28 0C23.5817 0 20 3.58172 20 8C20 12.4183 23.5817 16 28 16Z"
          fill="url(#paint0_linear_12482_3)"/>
    <path d="M8 26C3.582 26 0 22.418 0 18C0 13.582 3.582 10 8 10C8.834 10 9.636 10.128 10.392 10.364C11.518 6.68 14.946 4 19 4C23.97 4 28 8.03 28 13C28 13.47 27.964 13.93 27.894 14.38C28.55 14.134 29.258 14 30 14C33.314 14 36 16.686 36 20C36 23.314 33.314 26 30 26H8Z"
          fill="url(#paint1_linear_12482_3)"/>
    <path d="M10 13.217C10 18.187 14.03 22.217 19 22.217C23.502 22.217 27.23 18.913 27.894 14.597C28.55 14.351 29.258 14.217 30 14.217C33.314 14.217 36 16.903 36 20.217C36 23.531 33.314 26.217 30 26.217H8C3.582 26.217 0 22.635 0 18.217C0 13.799 3.582 10.217 8 10.217C8.834 10.217 9.636 10.345 10.392 10.581C10.136 11.415 10 12.299 10 13.217Z"
          fill="url(#paint2_radial_12482_3)"/>
    <defs>
        <linearGradient id="paint0_linear_12482_3" x1="36" y1="0" x2="24.7832" y2="11.0723"
                        gradientUnits="userSpaceOnUse">
            <stop stop-color="#7C7C7C"/>
            <stop offset="0.489583" stop-color="#A6A6A6"/>
            <stop offset="0.9999" stop-color="#DADADA"/>
            <stop offset="1" stop-color="#251C05"/>
        </linearGradient>
        <linearGradient id="paint1_linear_12482_3" x1="18" y1="4" x2="18" y2="26" gradientUnits="userSpaceOnUse">
            <stop stop-color="#9FC7FF"/>
            <stop offset="1" stop-color="#9BC1F5"/>
        </linearGradient>
        <radialGradient id="paint2_radial_12482_3" cx="0" cy="0" r="1" gradientUnits="userSpaceOnUse"
                        gradientTransform="translate(11.0679 -30.4796) rotate(-90) scale(20.9574 6.69705)">
            <stop stop-color="#486DA8" stop-opacity="0.4"/>
            <stop offset="1" stop-color="#486DA8" stop-opacity="0"/>
        </radialGradient>
    </defs>
</svg>
