<svg width="36" height="36" viewBox="0 0 36 36" fill="none" xmlns="http://www.w3.org/2000/svg">
    <path d="M28 16C32.4183 16 36 12.4183 36 8C36 3.58172 32.4183 0 28 0C23.5817 0 20 3.58172 20 8C20 12.4183 23.5817 16 28 16Z"
          fill="url(#paint0_linear_12482_8)"/>
    <path d="M10.218 29.2559L8.11798 34.0173C7.79798 34.7452 8.15598 35.5836 8.91998 35.8884C9.68398 36.1933 10.564 35.8522 10.884 35.1244L12.984 30.3629C13.304 29.635 12.946 28.7967 12.182 28.4918C11.418 28.1869 10.538 28.528 10.218 29.2559ZM20.218 27.3505L18.118 32.112C17.798 32.8398 18.156 33.6782 18.92 33.9831C19.684 34.2879 20.564 33.9468 20.884 33.219L22.984 28.4575C23.304 27.7297 22.946 26.8913 22.182 26.5864C21.418 26.2816 20.538 26.6226 20.218 27.3505Z"
          fill="#66AFEB"/>
    <path d="M8 25.6039C3.582 25.6039 0 22.0219 0 17.6039C0 13.1859 3.582 9.60394 8 9.60394C8.834 9.60394 9.636 9.73194 10.392 9.96794C11.518 6.28394 14.946 3.60394 19 3.60394C23.97 3.60394 28 7.63394 28 12.6039C28 13.0739 27.964 13.5339 27.894 13.9839C28.55 13.7379 29.258 13.6039 30 13.6039C33.314 13.6039 36 16.2899 36 19.6039C36 22.9179 33.314 25.6039 30 25.6039H8Z"
          fill="url(#paint1_linear_12482_8)"/>
    <path d="M10 12.1781C10 16.9129 14.03 20.7522 19 20.7522C23.502 20.7522 27.23 17.6046 27.894 13.4928C28.55 13.2585 29.258 13.1308 30 13.1308C33.314 13.1308 36 15.6897 36 18.8469C36 22.0041 33.314 24.563 30 24.563H8C3.582 24.563 0 21.1505 0 16.9415C0 12.7326 3.582 9.32007 8 9.32007C8.834 9.32007 9.636 9.44201 10.392 9.66684C10.136 10.4614 10 11.3036 10 12.1781Z"
          fill="url(#paint2_radial_12482_8)"/>
    <defs>
        <linearGradient id="paint0_linear_12482_8" x1="36" y1="0" x2="24.7832" y2="11.0723"
                        gradientUnits="userSpaceOnUse">
            <stop stop-color="#7C7C7C"/>
            <stop offset="0.489583" stop-color="#A6A6A6"/>
            <stop offset="0.9999" stop-color="#DADADA"/>
            <stop offset="1" stop-color="#251C05"/>
        </linearGradient>
        <linearGradient id="paint1_linear_12482_8" x1="18" y1="3.60394" x2="18" y2="25.6039"
                        gradientUnits="userSpaceOnUse">
            <stop stop-color="#9FC7FF"/>
            <stop offset="1" stop-color="#9BC1F5"/>
        </linearGradient>
        <radialGradient id="paint2_radial_12482_8" cx="0" cy="0" r="1" gradientUnits="userSpaceOnUse"
                        gradientTransform="translate(11.0679 -29.4508) rotate(-90) scale(19.9657 6.69705)">
            <stop stop-color="#486DA8" stop-opacity="0.4"/>
            <stop offset="1" stop-color="#486DA8" stop-opacity="0"/>
        </radialGradient>
    </defs>
</svg>
