<svg width="36" height="39" viewBox="0 0 36 39" fill="none" xmlns="http://www.w3.org/2000/svg">
    <path d="M28 16.783C32.4183 16.783 36 13.2012 36 8.78296C36 4.36468 32.4183 0.782959 28 0.782959C23.5817 0.782959 20 4.36468 20 8.78296C20 13.2012 23.5817 16.783 28 16.783Z"
          fill="url(#paint0_linear_2_531)"/>
    <path d="M10.218 31.7089L8.11798 36.7069C7.79798 37.4709 8.15598 38.3509 8.91998 38.6709C9.68398 38.9909 10.564 38.6329 10.884 37.8689L12.984 32.8709C13.304 32.1069 12.946 31.2269 12.182 30.9069C11.418 30.5869 10.538 30.9449 10.218 31.7089ZM20.218 29.7089L18.118 34.7069C17.798 35.4709 18.156 36.3509 18.92 36.6709C19.684 36.9909 20.564 36.6329 20.884 35.8689L22.984 30.8709C23.304 30.1069 22.946 29.2269 22.182 28.9069C21.418 28.5869 20.538 28.9449 20.218 29.7089Z"
          fill="#66AFEB"/>
    <path d="M8 26.783C3.582 26.783 0 23.201 0 18.783C0 14.365 3.582 10.783 8 10.783C8.834 10.783 9.636 10.911 10.392 11.147C11.518 7.46296 14.946 4.78296 19 4.78296C23.97 4.78296 28 8.81296 28 13.783C28 14.253 27.964 14.713 27.894 15.163C28.55 14.917 29.258 14.783 30 14.783C33.314 14.783 36 17.469 36 20.783C36 24.097 33.314 26.783 30 26.783H8Z"
          fill="url(#paint1_linear_2_531)"/>
    <path d="M10 13.783C10 18.753 14.03 22.783 19 22.783C23.502 22.783 27.23 19.479 27.894 15.163C28.55 14.917 29.258 14.783 30 14.783C33.314 14.783 36 17.469 36 20.783C36 24.097 33.314 26.783 30 26.783H8C3.582 26.783 0 23.201 0 18.783C0 14.365 3.582 10.783 8 10.783C8.834 10.783 9.636 10.911 10.392 11.147C10.136 11.981 10 12.865 10 13.783Z"
          fill="url(#paint2_radial_2_531)"/>
    <defs>
        <linearGradient id="paint0_linear_2_531" x1="36" y1="0.782959" x2="24.7832" y2="11.8553"
                        gradientUnits="userSpaceOnUse">
            <stop stop-color="#FFB301"/>
            <stop offset="1" stop-color="#FFC533"/>
        </linearGradient>
        <linearGradient id="paint1_linear_2_531" x1="18" y1="4.78296" x2="18" y2="26.783"
                        gradientUnits="userSpaceOnUse">
            <stop stop-color="#9FC7FF"/>
            <stop offset="1" stop-color="#9BC1F5"/>
        </linearGradient>
        <radialGradient id="paint2_radial_2_531" cx="0" cy="0" r="1" gradientUnits="userSpaceOnUse"
                        gradientTransform="translate(11.0679 -29.9136) rotate(-90) scale(20.9574 6.69705)">
            <stop stop-color="#486DA8" stop-opacity="0.4"/>
            <stop offset="1" stop-color="#486DA8" stop-opacity="0"/>
        </radialGradient>
    </defs>
</svg>
