<svg width="40" height="43" viewBox="0 0 40 43" fill="none" xmlns="http://www.w3.org/2000/svg">
    <path d="M9.21713 35.9191L7.11713 40.9171C6.79713 41.6811 7.15513 42.5611 7.91913 42.8811C8.68313 43.2011 9.56313 42.8431 9.88313 42.0791L11.9831 37.0811C12.3031 36.3171 11.9451 35.4371 11.1811 35.1171C10.4171 34.7971 9.53713 35.1551 9.21713 35.9191ZM25.2171 35.9191L23.1171 40.9171C22.7971 41.6811 23.1551 42.5611 23.9191 42.8811C24.6831 43.2011 25.5631 42.8431 25.8831 42.0791L27.9831 37.0811C28.3031 36.3171 27.9451 35.4371 27.1811 35.1171C26.4171 34.7971 25.5371 35.1551 25.2171 35.9191ZM17.2171 33.9191L15.1171 38.9171C14.7971 39.6811 15.1551 40.5611 15.9191 40.8811C16.6831 41.2011 17.5631 40.8431 17.8831 40.0791L19.9831 35.0811C20.3031 34.3171 19.9451 33.4371 19.1811 33.1171C18.4171 32.7971 17.5371 33.1551 17.2171 33.9191Z"
          fill="#66AFEB"/>
    <path opacity="0.32"
          d="M34 21C37.314 21 40 18.314 40 15C40 11.686 37.314 9 34 9H33.938C33.978 8.672 34 8.338 34 8C34 3.582 30.418 0 26 0C22.5 0 19.524 2.248 18.44 5.378C17.67 5.132 16.852 5 16 5C11.582 5 8 8.582 8 13C8 17.418 11.582 21 16 21C16.69 21 17.36 20.912 18 20.748V21H34Z"
          fill="#73A5E6"/>
    <path d="M8 31C3.582 31 0 27.418 0 23C0 18.582 3.582 15 8 15C8.834 15 9.636 15.128 10.392 15.364C11.518 11.68 14.946 9 19 9C23.97 9 28 13.03 28 18C28 18.47 27.964 18.93 27.894 19.38C28.55 19.134 29.258 19 30 19C33.314 19 36 21.686 36 25C36 28.314 33.314 31 30 31H8Z"
          fill="url(#paint0_linear_12483_17)"/>
    <path d="M10 18C10 22.97 14.03 27 19 27C23.502 27 27.23 23.696 27.894 19.38C28.55 19.134 29.258 19 30 19C33.314 19 36 21.686 36 25C36 28.314 33.314 31 30 31H8C3.582 31 0 27.418 0 23C0 18.582 3.582 15 8 15C8.834 15 9.636 15.128 10.392 15.364C10.136 16.198 10 17.082 10 18Z"
          fill="url(#paint1_radial_12483_17)"/>
    <defs>
        <linearGradient id="paint0_linear_12483_17" x1="18" y1="9" x2="18" y2="31" gradientUnits="userSpaceOnUse">
            <stop stop-color="#9FC7FF"/>
            <stop offset="1" stop-color="#9BC1F5"/>
        </linearGradient>
        <radialGradient id="paint1_radial_12483_17" cx="0" cy="0" r="1" gradientUnits="userSpaceOnUse"
                        gradientTransform="translate(13.9439 -29.6966) rotate(-90) scale(20.9574 6.69705)">
            <stop stop-color="#486DA8" stop-opacity="0.4"/>
            <stop offset="1" stop-color="#486DA8" stop-opacity="0"/>
        </radialGradient>
    </defs>
</svg>
