<svg width="36" height="36" viewBox="0 0 36 36" fill="none" xmlns="http://www.w3.org/2000/svg">
    <path d="M34.9473 21.1765L29.1047 23.6912L19.4519 18.0147L29.1047 12.3382L34.9473 14.8529C35.0448 14.8971 35.1498 14.9118 35.2473 14.9118C35.5324 14.9118 35.8099 14.75 35.9374 14.4706C36.1024 14.0956 35.9299 13.6618 35.5549 13.5L30.6872 11.4044L34.0773 9.41176C34.4298 9.20588 34.5498 8.75 34.3323 8.40441C34.1148 8.05882 33.6573 7.94118 33.3048 8.15441L29.8472 10.1912L30.4097 5.02941C30.4547 4.625 30.1547 4.26471 29.7422 4.22059C29.3297 4.17647 28.9622 4.47059 28.9172 4.875L28.2346 11.1397L18.7543 16.7206V5.69853L23.9445 2.08824C24.282 1.85294 24.3645 1.39706 24.1245 1.06618C23.8845 0.735294 23.4195 0.654412 23.082 0.889706L18.7618 3.89706V0.735294C18.7618 0.330882 18.4243 0 18.0118 0C17.5993 0 17.2618 0.330882 17.2618 0.735294V3.86029L12.9342 0.882353C12.5966 0.647059 12.1241 0.727941 11.8916 1.05882C11.6516 1.38971 11.7341 1.85294 12.0716 2.08088L17.2543 5.64706V16.7059L7.71399 11.0882L7.09898 4.86029C7.06147 4.45588 6.69396 4.16176 6.28145 4.19853C5.86894 4.23529 5.56893 4.59559 5.60643 5L6.11645 10.1397L2.70384 8.13235C2.35133 7.92647 1.88631 8.03676 1.67631 8.38235C1.4663 8.72794 1.5788 9.18382 1.93132 9.38971L5.30642 11.375L0.45377 13.4853C0.0787582 13.6471 -0.0937471 14.0809 0.071258 14.4559C0.198762 14.7279 0.46877 14.8971 0.753779 14.8971C0.858782 14.8971 0.956285 14.875 1.05379 14.8309L6.86647 12.3015L16.5418 17.9926L6.86647 23.6838L1.05379 21.1544C0.671277 20.9926 0.228763 21.1544 0.0637578 21.5294C-0.101247 21.8971 0.0637578 22.3382 0.44627 22.5L5.29892 24.6103L1.92382 26.5956C1.5713 26.8015 1.4513 27.2574 1.66881 27.6029C1.81131 27.8309 2.05882 27.9632 2.31383 27.9632C2.44883 27.9632 2.57634 27.9265 2.69634 27.8603L6.10895 25.8529L5.59893 30.9926C5.56143 31.3971 5.86144 31.7574 6.27395 31.7941C6.29645 31.7941 6.32645 31.7941 6.34895 31.7941C6.73146 31.7941 7.05397 31.5074 7.09148 31.1324L7.70649 24.9044L17.2468 19.2868V30.6691L12.0866 33.8971C11.7341 34.1176 11.6366 34.5735 11.8541 34.9118C11.9966 35.1323 12.2366 35.25 12.4841 35.25C12.6191 35.25 12.7617 35.2132 12.8892 35.1323L17.2393 32.4118V35.2647C17.2393 35.6691 17.5768 36 17.9893 36C18.4018 36 18.7393 35.6691 18.7393 35.2647V32.3824L23.0895 35.1323C23.4345 35.3529 23.8995 35.2573 24.1245 34.9118C24.3495 34.5662 24.252 34.1176 23.8995 33.8971L18.7468 30.6618V19.3088L28.2271 24.8897L28.9096 31.1544C28.9472 31.5294 29.2772 31.8088 29.6522 31.8088C29.6822 31.8088 29.7047 31.8088 29.7347 31.8015C30.1472 31.7574 30.4472 31.3971 30.4022 30.9926L29.8397 25.8309L33.2973 27.8676C33.4173 27.9412 33.5523 27.9706 33.6798 27.9706C33.9348 27.9706 34.1823 27.8456 34.3248 27.6103C34.5348 27.2647 34.4223 26.8088 34.0698 26.6029L30.6797 24.6103L35.5474 22.5147C35.9299 22.3529 36.1024 21.9191 35.9299 21.5441C35.7649 21.1838 35.3223 21.0147 34.9473 21.1765Z"
          fill="#66AFEB"/>
</svg>
