<svg width="36" height="36" viewBox="0 0 36 36" fill="none" xmlns="http://www.w3.org/2000/svg">
    <path d="M17.8846 26.3824C22.579 26.3824 26.3846 22.5769 26.3846 17.8824C26.3846 13.188 22.579 9.38245 17.8846 9.38245C13.1902 9.38245 9.38458 13.188 9.38458 17.8824C9.38458 22.5769 13.1902 26.3824 17.8846 26.3824Z"
          fill="url(#paint0_linear_12492_4)"/>
    <path d="M26.1101 1.80039L24.0839 6.69243C23.4234 8.28575 21.0333 7.29596 21.6938 5.70264L23.72 0.810596C24.3805 -0.782724 26.7706 0.207065 26.1101 1.80039ZM14.3045 30.2991L12.2783 35.1911C11.6178 36.7844 9.2277 35.7947 9.88816 34.2013L11.9144 29.3093C12.5749 27.716 14.965 28.7058 14.3045 30.2991V30.2991ZM35.1911 12.2811L30.2988 14.3073C28.7054 14.9677 27.7156 12.5777 29.309 11.9173L34.2013 9.89114C35.7946 9.23071 36.7845 11.6207 35.1911 12.2811V12.2811ZM6.69103 24.0862L1.79875 26.1123C0.205351 26.7727 -0.784486 24.3828 0.80891 23.7223L5.70119 21.6962C7.29458 21.0358 8.28442 23.4257 6.69103 24.0862V24.0862ZM34.2013 26.114L29.309 24.0879C27.7156 23.4275 28.7054 21.0375 30.2988 21.6979L35.1911 23.7241C36.7845 24.3845 35.7946 26.7745 34.2013 26.114ZM5.70119 14.309L0.80891 12.2828C-0.784486 11.6224 0.205351 9.23243 1.79875 9.89286L6.69103 11.919C8.28442 12.5794 7.29458 14.9694 5.70119 14.309V14.309ZM12.2765 0.808872L14.3028 5.70092C14.9632 7.29424 12.5731 8.28403 11.9127 6.69071L9.88644 1.79866C9.22597 0.205341 11.6161 -0.784448 12.2765 0.808872V0.808872ZM24.0822 29.3076L26.1084 34.1996C26.7689 35.7929 24.3788 36.7827 23.7183 35.1894L21.6921 30.2974C21.0316 28.704 23.4217 27.7143 24.0822 29.3076V29.3076Z"
          fill="#FFB300"/>
    <defs>
        <linearGradient id="paint0_linear_12492_4" x1="17.8846" y1="9.38245" x2="17.8846" y2="26.1558"
                        gradientUnits="userSpaceOnUse">
            <stop stop-color="#FFC227"/>
            <stop offset="1" stop-color="#FFB300"/>
        </linearGradient>
    </defs>
</svg>
